<?xml version="1.0" encoding="UTF-8"?>
<svg version="1.1" xmlns="http://www.w3.org/2000/svg" width="600" height="600">
<path d="M0 0 C198 0 396 0 600 0 C600 198 600 396 600 600 C402 600 204 600 0 600 C0 402 0 204 0 0 Z " fill="#FEFEFE" transform="translate(0,0)"/>
<path d="M0 0 C17.82 0 35.64 0 54 0 C51.75345037 11.23274815 51.75345037 11.23274815 50.15234375 15.4609375 C49.79873779 16.41347412 49.44513184 17.36601074 49.08081055 18.34741211 C48.51487183 19.84606812 48.51487183 19.84606812 47.9375 21.375 C44.02019735 31.97169275 40.46416726 42.64992525 37.09545898 53.43310547 C35.57061496 58.27822574 34.0302244 63.06102656 32.08203125 67.75390625 C29.09593288 75.00627816 26.86565312 82.52833149 24.5 90 C19.24680984 106.59165295 19.24680984 106.59165295 17.03125 111.90625 C13.843514 119.58018881 11.51682079 127.58755045 9 135.5 C3.19017742 153.76507804 3.19017742 153.76507804 0.0234375 161.36132812 C-2.4690853 167.78766077 -4.41994839 174.43037403 -6.5 181 C-11.75319016 197.59165295 -11.75319016 197.59165295 -13.96875 202.90625 C-17.156486 210.58018881 -19.48317921 218.58755045 -22 226.5 C-27.80982258 244.76507804 -27.80982258 244.76507804 -30.9765625 252.36132812 C-33.4690853 258.78766077 -35.41994839 265.43037403 -37.5 272 C-42.75256423 288.589676 -42.75256423 288.589676 -45.95898438 296.30859375 C-48.45248138 302.75519577 -50.41413724 309.41202015 -52.5 316 C-57.75056492 332.58336141 -57.75056492 332.58336141 -60.15625 338.4375 C-62.07294387 343.18050516 -63.53003052 348.10010173 -65 353 C-83.81 353 -102.62 353 -122 353 C-121.29436345 348.06054412 -120.65998054 344.75556086 -118.88671875 340.30078125 C-117.83100198 337.56149852 -116.91567984 334.78913973 -116 332 C-114.91204947 328.70330463 -113.81155232 325.42656788 -112.5625 322.1875 C-111.08378745 318.3331509 -109.79370704 314.41929766 -108.5 310.5 C-107.02622094 306.03530043 -105.50549553 301.60514751 -103.8125 297.21875 C-102.3933444 293.34336357 -101.13164962 289.41358846 -99.83813477 285.49487305 C-98.55844133 281.63260464 -97.20968276 277.81494004 -95.74609375 274.01953125 C-94.76609884 271.36687488 -93.8862092 268.68538109 -93 266 C-91.91204947 262.70330463 -90.81155232 259.42656788 -89.5625 256.1875 C-88.08378752 252.33315107 -86.79370287 248.41929911 -85.5 244.5 C-84.00445538 239.96921721 -82.46286233 235.47149044 -80.74609375 231.01953125 C-79.76609884 228.36687488 -78.8862092 225.68538109 -78 223 C-76.91204947 219.70330463 -75.81155232 216.42656788 -74.5625 213.1875 C-73.08378752 209.33315107 -71.79370287 205.41929911 -70.5 201.5 C-69.00445538 196.96921721 -67.46286233 192.47149044 -65.74609375 188.01953125 C-64.76609884 185.36687488 -63.8862092 182.68538109 -63 180 C-61.91204947 176.70330463 -60.81155232 173.42656788 -59.5625 170.1875 C-58.08378745 166.3331509 -56.79370704 162.41929766 -55.5 158.5 C-54.02622094 154.03530043 -52.50549553 149.60514751 -50.8125 145.21875 C-49.3933444 141.34336357 -48.13164962 137.41358846 -46.83813477 133.49487305 C-45.55844133 129.63260464 -44.20968276 125.81494004 -42.74609375 122.01953125 C-41.76609884 119.36687488 -40.8862092 116.68538109 -40 114 C-38.91204947 110.70330463 -37.81155232 107.42656788 -36.5625 104.1875 C-35.08378752 100.33315107 -33.79370287 96.41929911 -32.5 92.5 C-31.00445538 87.96921721 -29.46286233 83.47149044 -27.74609375 79.01953125 C-26.76609884 76.36687488 -25.8862092 73.68538109 -25 71 C-23.91204947 67.70330463 -22.81155232 64.42656788 -21.5625 61.1875 C-20.08378752 57.33315107 -18.79370287 53.41929911 -17.5 49.5 C-16.00445538 44.96921721 -14.46286233 40.47149044 -12.74609375 36.01953125 C-11.76609884 33.36687488 -10.8862092 30.68538109 -10 28 C-8.90514963 24.68652832 -7.80163098 21.38734483 -6.5625 18.125 C-4.28641836 12.11614447 -2.16112539 6.05115108 0 0 Z " fill="#4166C5" transform="translate(334,123)"/>
<path d="M0 0 C11.12868982 37.4584568 11.12868982 37.4584568 11 45 C4.94189285 47.49445929 -1.17046968 49.82662782 -7.31640625 52.09375 C-8.06280365 52.36920654 -8.80920105 52.64466309 -9.57821655 52.9284668 C-12.69026684 54.07573451 -15.80292766 55.22131423 -18.91674805 56.36376953 C-30.1201835 60.46407617 -30.1201835 60.46407617 -41.08520508 65.15429688 C-44.49754406 66.66141688 -48.02951775 67.81126249 -51.5625 69 C-61.02374563 72.24523321 -70.38982996 75.72654698 -79.75 79.25 C-80.44658722 79.51216309 -81.14317444 79.77432617 -81.86087036 80.04443359 C-85.1285475 81.27479014 -88.39553455 82.50695312 -91.66210938 83.74023438 C-95.43930922 85.16580131 -99.21900014 86.58454877 -103 88 C-96.57495135 90.75011552 -90.11952218 93.36650559 -83.56835938 95.80078125 C-82.14993904 96.33028396 -80.73156467 96.85990983 -79.31323242 97.38964844 C-78.59569794 97.65733032 -77.87816345 97.92501221 -77.1388855 98.20080566 C-73.79132315 99.45162197 -70.44733256 100.71186835 -67.10351562 101.97265625 C-66.11469769 102.34531868 -66.11469769 102.34531868 -65.10590363 102.72550964 C-63.74352869 103.23897585 -62.38117601 103.75250108 -61.0188446 104.26608276 C-58.82889585 105.09166138 -56.63888125 105.91706515 -54.44885254 106.74243164 C-49.01642983 108.78981266 -43.58411331 110.83747534 -38.15179443 112.88513184 C-33.53310133 114.62608769 -28.91436586 116.36693105 -24.295578 118.1076355 C-22.17117322 118.90831935 -20.04682748 119.70915969 -17.92248535 120.51000977 C-17.25263359 120.76211716 -16.58278183 121.01422455 -15.89263153 121.27397156 C-14.57534594 121.77113247 -13.2590208 122.27084666 -11.94373322 122.77326965 C-8.47420705 124.09400432 -4.99429777 125.35079551 -1.47583008 126.53564453 C-0.73636391 126.79213272 0.00310226 127.04862091 0.7649765 127.31288147 C2.1850667 127.80410511 3.61084423 128.27927223 5.04245758 128.73582458 C6.96813965 129.41235352 6.96813965 129.41235352 10 131 C11.39483235 134.66026534 10.95565093 137.14792039 9.82421875 140.83203125 C9.5411084 141.79189941 9.25799805 142.75176758 8.96630859 143.74072266 C8.48798584 145.35406494 8.48798584 145.35406494 8 147 C7.31158157 149.5438924 6.63005632 152.08879059 5.95703125 154.63671875 C5.60246475 155.96816588 5.24764512 157.29954563 4.89257812 158.63085938 C4.53254502 159.98307104 4.17251906 161.3352846 3.8125 162.6875 C3.44078462 164.08269013 3.06904001 165.47787247 2.69726562 166.87304688 C1.79784105 170.24860846 0.8988089 173.62427442 0 177 C-5.21942062 176.38622243 -9.52514041 174.71982904 -14.3046875 172.66796875 C-15.5272097 172.1526207 -15.5272097 172.1526207 -16.77442932 171.62686157 C-19.47710548 170.48619192 -22.17594789 169.33671535 -24.875 168.1875 C-26.78882657 167.37839941 -28.70297711 166.57006479 -30.61743164 165.76245117 C-33.63172375 164.49074059 -36.64579139 163.21852172 -39.65888977 161.94398499 C-49.88927915 157.61699547 -60.1417462 153.34363695 -70.39752197 149.07723999 C-74.44606455 147.39290094 -78.49389583 145.70685608 -82.54174805 144.02085876 C-85.48853117 142.79350938 -88.4354154 141.56640303 -91.38232422 140.33935547 C-96.65231209 138.14491079 -101.92194249 135.94960912 -107.19140625 133.75390625 C-107.98435089 133.42351852 -108.77729553 133.0931308 -109.5942688 132.75273132 C-113.35567394 131.18545071 -117.11694079 129.61783974 -120.87792969 128.04956055 C-127.41938242 125.32225568 -133.96265933 122.5996213 -140.51171875 119.890625 C-142.21908203 119.18317139 -142.21908203 119.18317139 -143.9609375 118.46142578 C-146.04471033 117.59833767 -148.1292905 116.73719498 -150.21484375 115.87841797 C-151.55289063 115.32371826 -151.55289063 115.32371826 -152.91796875 114.7578125 C-153.68906982 114.4395752 -154.4601709 114.12133789 -155.25463867 113.79345703 C-157 113 -157 113 -158 112 C-158.09304018 110.52645652 -158.11746265 109.04849409 -158.11352539 107.57202148 C-158.11344986 106.63112167 -158.11337433 105.69022186 -158.11329651 104.72080994 C-158.10813522 103.69790359 -158.10297394 102.67499725 -158.09765625 101.62109375 C-158.0962413 100.57929459 -158.09482635 99.53749542 -158.09336853 98.46412659 C-158.0877508 95.12188906 -158.0751953 91.77971743 -158.0625 88.4375 C-158.05748728 86.17773534 -158.05292398 83.91796963 -158.04882812 81.65820312 C-158.03777561 76.10544609 -158.02102024 70.55272775 -158 65 C-157.08452393 64.61481201 -156.16904785 64.22962402 -155.22583008 63.83276367 C-131.37736878 53.79777619 -107.53744202 43.74269251 -83.70257568 33.67546082 C-77.81653589 31.18938299 -71.93027396 28.70383219 -66.04376221 26.21887207 C-64.05736634 25.38031311 -62.07099735 24.54169047 -60.08465576 23.70300293 C-55.26726733 21.66903657 -50.44950186 19.63597423 -45.63085938 17.60498047 C-37.58997493 14.21462409 -29.55298673 10.81694741 -21.5390625 7.36328125 C-20.30303949 6.83254027 -19.06695821 6.30193496 -17.83081055 5.77148438 C-15.65254107 4.83491783 -13.47669065 3.89269331 -11.30395508 2.94335938 C-10.37736084 2.54568359 -9.4507666 2.14800781 -8.49609375 1.73828125 C-7.32324829 1.22841675 -7.32324829 1.22841675 -6.12670898 0.70825195 C-4 0 -4 0 0 0 Z " fill="#131313" transform="translate(188,214)"/>
<path d="M0 0 C3.82685752 0.63868091 7.11953916 1.75938614 10.6875 3.2734375 C12.41154053 4.00071045 12.41154053 4.00071045 14.17041016 4.74267578 C15.44696185 5.28673282 16.72349096 5.83084289 18 6.375 C19.36357905 6.95211044 20.72735485 7.52875615 22.09130859 8.10498047 C25.09673532 9.37550808 28.10098586 10.64876754 31.10449219 11.92382812 C36.22549945 14.09700369 41.35073097 16.26010748 46.4765625 18.421875 C54.05299018 21.61764784 61.62859305 24.81536133 69.203125 28.015625 C70.17240936 28.42514404 71.14169373 28.83466309 72.14035034 29.2565918 C76.07951255 30.92092199 80.0186373 32.58534084 83.95776367 34.24975586 C89.80952093 36.72228167 95.66141243 39.19448926 101.51348877 41.66625977 C103.41161388 42.46805294 105.30968572 43.26997223 107.20770264 44.07202148 C116.69172768 48.07960628 126.17825646 52.08070589 135.6796875 56.046875 C136.4215329 56.35678375 137.1633783 56.6666925 137.92770386 56.98599243 C141.34417593 58.41303173 144.76162487 59.83762178 148.18115234 61.25732422 C149.34340332 61.74217285 150.5056543 62.22702148 151.703125 62.7265625 C152.71020508 63.14502441 153.71728516 63.56348633 154.75488281 63.99462891 C157 65 157 65 158 66 C158.09295815 67.44289787 158.11746513 68.89029785 158.11352539 70.33618164 C158.11344986 71.2570607 158.11337433 72.17793976 158.11329651 73.12672424 C158.10813522 74.12775681 158.10297394 75.12878937 158.09765625 76.16015625 C158.09553383 77.68956093 158.09553383 77.68956093 158.09336853 79.24986267 C158.08775097 82.52077107 158.0751955 85.79161213 158.0625 89.0625 C158.05748726 91.27408756 158.05292396 93.48567618 158.04882812 95.69726562 C158.03777584 101.13153357 158.02102063 106.56576197 158 112 C136.86709998 121.15678372 115.61083237 130.00300628 94.32568359 138.79882812 C86.59993092 141.99151211 78.8763902 145.18952885 71.15377808 148.38980103 C69.47333283 149.08602691 67.7927712 149.78197195 66.11209106 150.47763062 C56.07452838 154.63240303 46.04933131 158.81501461 36.0390625 163.03515625 C34.04998551 163.87252011 32.06089063 164.70984151 30.07177734 165.54711914 C26.25998656 167.15178939 22.45085604 168.76257111 18.64306641 170.37670898 C16.91318101 171.1055317 15.18320531 171.83414009 13.453125 172.5625 C12.66861969 172.89705704 11.88411438 173.23161407 11.07583618 173.5763092 C7.3996333 175.11821022 3.97596981 176.42497118 0 177 C-1.5746212 171.25468847 -3.14095702 165.50720622 -4.69970703 159.75756836 C-5.23097074 157.80252439 -5.76448072 155.84808937 -6.30029297 153.89428711 C-7.07071916 151.08344648 -7.8330016 148.27050439 -8.59375 145.45703125 C-8.95466736 144.15050346 -8.95466736 144.15050346 -9.32287598 142.81758118 C-10.40180168 138.79798101 -11.33125007 135.20461742 -11 131 C-7.2514371 129.5795111 -3.50088628 128.16434128 0.25 126.75 C1.29414063 126.35425781 2.33828125 125.95851563 3.4140625 125.55078125 C9.70149791 123.18329014 16.01933215 120.97794284 22.40136719 118.87988281 C25.33325309 117.88716233 28.16760836 116.74760108 31 115.5 C35.92920582 113.39481835 40.90230386 111.67738104 46 110.03125 C49.06499901 108.97765659 52.01985203 107.77277153 55 106.5 C58.95735445 104.80987987 62.90509897 103.32231179 67 102 C72.02330104 100.37328334 76.83866857 98.44232898 81.69140625 96.3671875 C86.35796595 94.43885704 91.08996557 92.69762123 95.83300781 90.96728516 C99.17219169 89.92351205 99.17219169 89.92351205 102 88 C101.030625 87.63648438 100.06125 87.27296875 99.0625 86.8984375 C96.39583333 85.8984375 93.72916667 84.8984375 91.0625 83.8984375 C90.29623291 83.6111377 89.52996582 83.32383789 88.74047852 83.02783203 C86.68875376 82.25832101 84.63718427 81.48839595 82.58569336 80.71826172 C75.91825014 78.2158477 69.24895539 75.71855397 62.57559204 73.23196411 C59.11563923 71.9423599 55.6565342 70.65049041 52.19750977 69.35839844 C50.42866296 68.69825622 48.65945181 68.0390895 46.88989258 67.38085938 C44.28107457 66.41018092 41.67362884 65.43589181 39.06640625 64.4609375 C38.28809952 64.17229828 37.50979279 63.88365906 36.707901 63.58627319 C32.05455473 61.84156182 27.51627119 59.92185558 22.98658752 57.8782959 C20.74681999 56.88806586 18.48864398 56.03514179 16.16796875 55.25390625 C15.35489258 54.97619385 14.54181641 54.69848145 13.70410156 54.41235352 C12.87362305 54.13190186 12.04314453 53.8514502 11.1875 53.5625 C3.65792495 50.97831517 -3.71273268 48.21409961 -11 45 C-10.39544957 37.74539485 -8.90418701 31.01828928 -7 24 C-6.80325684 23.27441895 -6.60651367 22.54883789 -6.40380859 21.80126953 C-2.24665785 6.52255505 -2.24665785 6.52255505 0 0 Z " fill="#121212" transform="translate(412,214)"/>
</svg>
